# File created by Blade
# Date/Time:  Wed Apr 08 17:39:35 2015
# Frame Rate: 120.000 fps
#------------------------------------------------------
:FULLY-SPECIFIED
:DEGREES
3530
root 8.869855 37.600257 -1.624923 179.560328 -44.674104 -509.257419
Spine -7.423018 -7.280154 6.681389
Head 39.018220 -34.613687 16.611210
LeftShoulder -5.864295 18.655434 19.399956
LeftArm 21.239426 20.828370 -73.035526
LeftForeArm 16.074356 -0.000000 27.765352
LeftHand -12.917874 -0.000000 -10.565545
LeftHandThumb1 -26.253704 0.000000 33.147579
RightShoulder -42.688895 -48.808998 25.781563
RightArm 46.415663 -11.436424 58.414443
RightForeArm 0.407027 -0.000000 11.051965
RightHand 3.056021 0.000000 -8.317728
RightHandThumb1 -24.326973 -0.000000 -32.862282
LeftUpLeg -27.159577 21.578046 7.286800
LeftLeg 12.601977 -0.000000 -0.000000
LeftFoot -11.109583 13.931128 -1.671905
LeftToeBase 5.337127 -0.000000 -0.000000
RightUpLeg -55.667475 6.794117 -10.347199
RightLeg 99.059410 -0.000000 -0.000000
RightFoot 11.234709 0.002969 12.431765
RightToeBase 21.541165 -0.000000 -0.000000
3531
root 8.853406 37.600855 -1.644725 179.512480 -44.789888 -509.201724
Spine -7.427979 -7.197161 6.634980
Head 38.997276 -34.857200 16.661555
LeftShoulder -5.860808 18.639433 19.419550
LeftArm 21.213698 20.947247 -73.052846
LeftForeArm 16.204426 -0.000000 27.831493
LeftHand -12.872250 -0.000000 -10.653618
LeftHandThumb1 -26.253704 0.000000 33.147579
RightShoulder -42.748244 -48.717564 25.852651
RightArm 46.309759 -11.287760 58.482287
RightForeArm 0.509939 -0.000000 10.908936
RightHand 2.726680 -0.000000 -8.195318
RightHandThumb1 -24.326973 -0.000000 -32.862282
LeftUpLeg -27.099501 21.356297 7.382855
LeftLeg 12.562703 -0.000000 -0.000000
LeftFoot -11.066602 14.015396 -1.556685
LeftToeBase 5.239095 -0.000000 -0.000000
RightUpLeg -55.293431 7.922051 -10.912462
RightLeg 99.805072 -0.000000 -0.000000
RightFoot 13.368284 -0.160545 13.653529
RightToeBase 20.992040 -0.000000 -0.000000
3532
root 8.841238 37.601625 -1.660226 179.513195 -44.952458 -509.137459
Spine -7.486110 -7.189374 6.617925
Head 38.945230 -35.069100 16.696731
LeftShoulder -5.896879 18.645199 19.418200
LeftArm 21.177859 20.980967 -73.108161
LeftForeArm 16.340132 -0.000000 27.900239
LeftHand -12.841101 0.000000 -10.858388
LeftHandThumb1 -26.253704 0.000000 33.147579
RightShoulder -42.761014 -48.699503 25.891588
RightArm 46.238463 -11.112675 58.570381
RightForeArm 0.682225 0.000000 10.789176
RightHand 2.243576 -0.000000 -7.957565
RightHandThumb1 -24.326973 -0.000000 -32.862282
LeftUpLeg -27.099562 21.023689 7.488654
LeftLeg 12.511679 -0.000000 -0.000000
LeftFoot -11.038169 14.178382 -1.415122
LeftToeBase 5.327637 -0.000000 -0.000000
RightUpLeg -54.991233 8.960950 -11.391055
RightLeg 100.644043 -0.000000 -0.000000
RightFoot 15.485356 -0.492890 14.848259
RightToeBase 21.116800 -0.000000 -0.000000
3533
root 8.827528 37.598735 -1.675369 179.530979 -45.126924 -509.114460
Spine -7.534121 -7.169869 6.571458
Head 38.865097 -35.295691 16.746370
LeftShoulder -5.887090 18.667108 19.416499
LeftArm 21.119085 21.062687 -73.100929
LeftForeArm 16.312694 -0.000000 28.049571
LeftHand -12.640263 -0.000000 -10.949869
LeftHandThumb1 -26.253704 0.000000 33.147579
RightShoulder -42.791754 -48.664448 25.899766
RightArm 46.190785 -10.983558 58.661244
RightForeArm 0.878203 -0.000000 10.617065
RightHand 1.842915 0.000000 -7.690584
RightHandThumb1 -24.326973 -0.000000 -32.862282
LeftUpLeg -27.068330 20.621064 7.585405
LeftLeg 12.438292 -0.000000 -0.000000
LeftFoot -10.992454 14.374631 -1.371327
LeftToeBase 5.234847 -0.000000 -0.000000
RightUpLeg -54.741353 9.833753 -11.779911
RightLeg 101.599596 -0.000000 -0.000000
RightFoot 17.570232 -0.817853 15.375108
RightToeBase 22.554304 -0.000000 -0.000000
3534
root 8.814843 37.594519 -1.687709 179.566525 -45.334588 -509.123725
Spine -7.556772 -7.171674 6.501318
Head 38.737250 -35.534102 16.798204
LeftShoulder -5.871810 18.671072 19.416139
LeftArm 21.056252 21.156316 -73.071512
LeftForeArm 16.287492 -0.000000 28.217718
LeftHand -12.463320 -0.000000 -11.072694
LeftHandThumb1 -26.253704 0.000000 33.147579
RightShoulder -42.811734 -48.600119 25.880931
RightArm 46.138544 -10.870941 58.775718
RightForeArm 0.976749 -0.000000 10.440378
RightHand 1.553979 -0.000000 -7.612363
RightHandThumb1 -24.326973 -0.000000 -32.862282
LeftUpLeg -27.032596 20.120050 7.680557
LeftLeg 12.366990 -0.000000 -0.000000
LeftFoot -10.962310 14.635623 -1.355359
LeftToeBase 5.225582 -0.000000 -0.000000
RightUpLeg -54.501281 10.600816 -12.118213
RightLeg 102.615883 -0.000000 -0.000000
RightFoot 19.493936 -1.019856 15.674750
RightToeBase 24.822372 -0.000000 -0.000000
3535
root 8.800410 37.587532 -1.696243 179.638777 -45.519158 -509.208837
Spine -7.543911 -7.156421 6.374645
Head 38.569994 -35.736374 16.878438
LeftShoulder -5.934696 18.685961 19.392260
LeftArm 21.107978 21.352556 -72.940282
LeftForeArm 16.177693 -0.000000 28.333471
LeftHand -12.494628 0.000000 -11.151378
LeftHandThumb1 -26.253704 0.000000 33.147579
RightShoulder -42.854039 -48.577536 25.899546
RightArm 46.168647 -10.791246 58.813483
RightForeArm 1.143050 0.000000 10.278561
RightHand 1.280542 -0.000000 -7.365192
RightHandThumb1 -24.326973 -0.000000 -32.862282
LeftUpLeg -26.984778 19.677500 7.705731
LeftLeg 12.302367 -0.000000 -0.000000
LeftFoot -10.926031 14.855280 -1.351965
LeftToeBase 5.095935 -0.000000 -0.000000
RightUpLeg -54.274542 11.305490 -12.430762
RightLeg 103.679423 -0.000000 -0.000000
RightFoot 21.374036 -0.981738 15.465245
RightToeBase 26.668963 -0.000000 -0.000000
3536
root 8.789254 37.580961 -1.704014 179.699295 -45.728059 -509.258102
Spine -7.530858 -7.172016 6.286909
Head 38.360676 -35.925945 16.950312
LeftShoulder -5.946641 18.697078 19.401389
LeftArm 21.078570 21.254853 -73.028170
LeftForeArm 16.281871 -0.000000 28.378184
LeftHand -12.402666 -0.000000 -11.240505
LeftHandThumb1 -26.253704 0.000000 33.147579
RightShoulder -42.799514 -48.564990 25.824529
RightArm 46.137497 -10.712403 58.903044
RightForeArm 1.205862 0.000000 10.194521
RightHand 0.915540 -0.000000 -6.982920
RightHandThumb1 -24.326973 -0.000000 -32.862282
LeftUpLeg -26.997926 19.267501 7.731451
LeftLeg 12.287977 -0.000000 -0.000000
LeftFoot -10.918421 15.006695 -1.345378
LeftToeBase 5.003578 -0.000000 -0.000000
RightUpLeg -54.058189 11.876065 -12.570918
RightLeg 104.782370 -0.000000 -0.000000
RightFoot 23.079786 -0.975634 15.026175
RightToeBase 28.755217 -0.000000 -0.000000
